<svg width="300" height="300" viewBox="0 0 300 300" fill="none" xmlns="http://www.w3.org/2000/svg">
<g clip-path="url(#clip0_29_33)">
<path d="M152.684 195.835C179.577 195.835 201.377 174.035 201.377 147.142C201.377 120.25 179.577 98.4492 152.684 98.4492C125.792 98.4492 103.991 120.25 103.991 147.142C103.991 174.035 125.792 195.835 152.684 195.835Z" fill="#FFB6B6"/>
<path d="M124.731 203.036L122.531 180.799L166.46 172.585L192.4 235.742L147.287 287.622L115.145 224.464L124.731 203.036Z" fill="#FFB6B6"/>
<path d="M248.955 261.226C221.323 286.286 185.87 300 148.308 300C113.679 300 80.842 288.344 54.2762 266.887C54.2593 266.876 54.2481 266.865 54.2311 266.848C52.3984 265.37 50.5939 263.842 48.8232 262.263C48.9247 261.812 49.0319 261.367 49.139 260.932C53.5093 242.842 58.8439 238.692 58.8439 238.692L85.4604 223.28L123.603 204.164H124.731C124.731 204.164 121.872 212.43 130.68 221.103C134.741 225.102 141.017 228.575 150.677 230.188C163.274 232.286 169.821 227.476 173.165 221.081C177.09 213.586 178.866 205.613 178.568 202.376C178.5 201.665 178.444 201.265 178.444 201.265C178.444 201.265 180.851 202.68 188.053 207.18C194.38 211.133 202.663 216.152 211.466 221.081C212.639 221.741 213.818 222.395 215.007 223.043C220.765 226.195 226.663 229.246 232.308 231.885C240.665 235.788 245.684 246.806 248.656 259.867C248.757 260.318 248.859 260.769 248.955 261.226Z" fill="#F9A826"/>
<path d="M256.066 43.9342C227.735 15.6034 190.066 0 150 0C109.934 0 72.2651 15.6034 43.9342 43.9342C15.6034 72.265 0 109.934 0 150C0 186.57 12.9981 221.143 36.8177 248.442C39.0902 251.053 41.4643 253.596 43.9342 256.066C44.515 256.647 45.1015 257.227 45.6936 257.791C47.2726 259.32 48.8797 260.814 50.5151 262.263C51.5075 263.148 52.5113 264.017 53.5263 264.868C54.3214 265.539 55.1165 266.199 55.9229 266.848C55.9399 266.865 55.9512 266.876 55.9681 266.887C82.5338 288.344 115.37 300 150 300C187.562 300 223.015 286.286 250.647 261.226C252.491 259.556 254.295 257.836 256.066 256.066C256.624 255.508 257.182 254.944 257.729 254.374C259.252 252.806 260.729 251.211 262.173 249.592C286.63 222.118 300 187.088 300 150C300 109.934 284.397 72.265 256.066 43.9342L256.066 43.9342ZM261.806 248.188C260.397 249.789 258.953 251.368 257.476 252.908C255.175 255.305 252.801 257.628 250.348 259.867C249.417 260.724 248.476 261.558 247.523 262.387C237.897 270.761 227.182 277.912 215.628 283.607C211.573 285.609 207.417 287.43 203.165 289.06C186.648 295.398 168.722 298.872 150 298.872C131.932 298.872 114.609 295.635 98.5771 289.714C91.9962 287.289 85.6353 284.408 79.5282 281.109C78.6316 280.624 77.7406 280.133 76.8552 279.632C72.1974 276.992 67.6917 274.111 63.3665 270.998C60.1353 268.68 57 266.239 53.9718 263.667C52.9117 262.771 51.8628 261.863 50.8308 260.932C49.1504 259.438 47.5038 257.898 45.8966 256.32C42.8515 253.336 39.9417 250.229 37.1617 246.998C14.7124 220.923 1.12782 187.021 1.12782 150C1.12782 67.9117 67.9117 1.12782 150 1.12782C232.088 1.12782 298.872 67.9117 298.872 150C298.872 187.59 284.87 221.966 261.806 248.188Z" fill="#3F3D56"/>
<path d="M121.826 191.93L131.43 194.1C131.43 194.1 123.88 170.159 126.442 167.873C129.005 165.588 135.285 169.189 135.285 169.189L141.883 176.588L149.921 168.404C149.921 168.404 158.648 157.553 162.065 154.506C165.481 151.458 159.993 140.146 159.993 140.146C159.993 140.146 210.684 126.478 191.822 101.891C191.822 101.891 180.763 82.614 177.162 88.8936C173.56 95.1732 169.266 85.2 169.266 85.2L156.153 87.6936C156.153 87.6936 130.273 72.4339 105.71 105.079C81.1462 137.723 121.826 191.93 121.826 191.93Z" fill="#2F2E41"/>
</g>
<defs>
<clipPath id="clip0_29_33">
<rect width="300" height="300" fill="white"/>
</clipPath>
</defs>
</svg>
