<svg width="300" height="300" viewBox="0 0 300 300" fill="none" xmlns="http://www.w3.org/2000/svg">
<g clip-path="url(#clip0_31_179)">
<path d="M213.829 213.75H138.829V112.246L203.679 147.773L213.829 213.75Z" fill="#2F2E41"/>
<path d="M152.684 195.835C179.577 195.835 201.377 174.035 201.377 147.142C201.377 120.25 179.577 98.4492 152.684 98.4492C125.792 98.4492 103.991 120.25 103.991 147.142C103.991 174.035 125.792 195.835 152.684 195.835Z" fill="#FFB6B6"/>
<path d="M124.731 203.036L122.531 180.799L166.46 172.585L192.4 235.742L147.287 287.622L115.145 224.464L124.731 203.036Z" fill="#FFB6B6"/>
<path d="M257.729 254.374C257.182 254.944 256.624 255.507 256.066 256.066C254.295 257.836 252.491 259.556 250.647 261.226C223.015 286.286 187.562 300 150 300C115.37 300 82.5339 288.344 55.9681 266.887C55.9512 266.876 55.9399 266.865 55.923 266.848C55.1166 266.199 54.3215 265.539 53.5264 264.868C53.6673 264.462 53.8196 264.062 53.9719 263.667C62.5151 241.41 79.3873 230.521 89.6279 225.756C94.7031 223.393 98.1485 222.53 98.1485 222.53L110.171 200.876L118.635 216.665L124.872 228.304L150.462 276.051L172.54 221.081L179.38 204.039L181.134 199.675L189.474 206.165L197.368 212.306L213.265 215.814L226.162 218.662L243.677 222.53C250.759 228.299 255.068 239.273 257.476 252.908C257.566 253.393 257.65 253.883 257.729 254.374Z" fill="#F9A826"/>
<path d="M127.071 91.8063C133.002 81.8431 143.896 75.0072 155.447 73.9997C166.998 72.9922 178.911 77.8389 186.477 86.6247C190.986 91.8602 193.943 98.272 198.338 103.603C207.796 115.076 223.924 121.785 228.055 136.068C229.858 142.301 228.96 148.955 228.048 155.379C227.266 160.885 226.484 166.391 225.702 171.897C225.093 176.182 224.51 180.7 226.117 184.718C228.002 189.433 232.513 192.521 235.429 196.677C240.392 203.75 240.029 214.104 234.584 220.812C232.222 223.721 229.091 225.915 226.615 228.727C224.139 231.539 222.302 235.384 223.339 238.985C225.326 245.882 236.143 247.536 237.329 254.615C237.936 258.234 235.436 261.849 232.16 263.504C228.885 265.159 225.029 265.207 221.386 264.764C207.54 263.081 194.721 254.43 187.98 242.219C181.238 230.008 180.747 214.55 186.7 201.937C191.59 191.577 200.677 182.422 200.578 170.967C200.524 164.726 197.662 158.898 194.863 153.32C189.134 141.903 183.405 130.486 177.676 119.069C174.607 112.954 171.046 106.363 164.728 103.736C159.845 101.706 154.305 102.493 149.082 103.324C143.86 104.154 138.328 104.963 133.431 102.968C128.533 100.972 124.833 95.0447 127.166 90.2992" fill="#2F2E41"/>
<path d="M135.604 92.3265C126.197 89.2299 115.643 94.2011 109.274 101.786C102.906 109.371 99.8161 119.101 96.873 128.558C95.1871 133.975 93.5013 139.392 91.8155 144.808C90.2297 149.904 88.6438 155 87.0579 160.095C85.1926 166.089 83.312 172.456 84.8429 178.544C85.9496 182.945 88.7974 186.941 88.8587 191.479C88.9227 196.219 85.9543 200.38 83.3529 204.343C80.7515 208.306 78.3096 213.015 79.549 217.59C81.4342 224.55 91.1103 228.375 90.5799 235.566C90.4028 237.966 89.0151 240.186 89.0403 242.592C89.0723 245.654 91.4693 248.299 94.2775 249.519C97.0858 250.738 100.245 250.805 103.306 250.751C112.696 250.586 122.069 249.471 131.235 247.428C134.762 246.642 138.348 245.678 141.284 243.572C144.219 241.465 146.409 237.975 146.027 234.382C145.432 228.784 139.412 225.607 136.374 220.867C133.391 216.21 133.46 210.31 132.173 204.932C130.405 197.54 126.038 191.086 122.759 184.229C110.434 158.45 114.748 125.59 133.311 103.866C134.952 101.945 136.746 100.013 137.43 97.581C138.115 95.1491 137.232 92.0506 134.853 91.1998" fill="#2F2E41"/>
<path d="M256.066 43.9342C227.735 15.6034 190.066 0 150 0C109.934 0 72.2651 15.6034 43.9342 43.9342C15.6034 72.265 0 109.934 0 150C0 186.57 12.9981 221.143 36.8177 248.442C39.0902 251.053 41.4643 253.596 43.9342 256.066C44.515 256.647 45.1015 257.227 45.6936 257.791C47.2726 259.32 48.8797 260.814 50.5151 262.263C51.5075 263.148 52.5113 264.017 53.5263 264.868C54.3214 265.539 55.1165 266.199 55.9229 266.848C55.9399 266.865 55.9512 266.876 55.9681 266.887C82.5338 288.344 115.37 300 150 300C187.562 300 223.015 286.286 250.647 261.226C252.491 259.556 254.295 257.836 256.066 256.066C256.624 255.508 257.182 254.944 257.729 254.374C259.252 252.806 260.729 251.211 262.173 249.592C286.63 222.118 300 187.088 300 150C300 109.934 284.397 72.265 256.066 43.9342L256.066 43.9342ZM261.806 248.188C260.397 249.789 258.953 251.368 257.476 252.908C255.175 255.305 252.801 257.628 250.348 259.867C249.417 260.724 248.476 261.558 247.523 262.387C237.897 270.761 227.182 277.912 215.628 283.607C211.573 285.609 207.417 287.43 203.165 289.06C186.648 295.398 168.722 298.872 150 298.872C131.932 298.872 114.609 295.635 98.5771 289.714C91.9962 287.289 85.6353 284.408 79.5282 281.109C78.6316 280.624 77.7406 280.133 76.8552 279.632C72.1974 276.992 67.6917 274.111 63.3665 270.998C60.1353 268.68 57 266.239 53.9718 263.667C52.9117 262.771 51.8628 261.863 50.8308 260.932C49.1504 259.438 47.5038 257.898 45.8966 256.32C42.8515 253.336 39.9417 250.229 37.1617 246.998C14.7124 220.923 1.12782 187.021 1.12782 150C1.12782 67.9117 67.9117 1.12782 150 1.12782C232.088 1.12782 298.872 67.9117 298.872 150C298.872 187.59 284.87 221.966 261.806 248.188Z" fill="#3F3D56"/>
</g>
<defs>
<clipPath id="clip0_31_179">
<rect width="300" height="300" fill="white"/>
</clipPath>
</defs>
</svg>
