<svg width="51" height="53" viewBox="0 0 51 53" fill="none" xmlns="http://www.w3.org/2000/svg">
<path d="M21.6534 18.1698H37.8439C39.5865 18.1698 41.1711 18.4973 42.5978 19.152C44.0245 19.807 45.2462 20.7016 46.2637 21.8361C47.2696 22.9703 48.0471 24.3033 48.5968 25.8353C49.1463 27.3672 49.4212 29.0046 49.4212 30.747C49.4212 32.4778 49.1463 34.1031 48.5968 35.6234C48.0471 37.1554 47.2696 38.4884 46.2637 39.6229C45.2462 40.769 44.0245 41.6694 42.5978 42.3244C41.1711 42.9909 39.5865 43.3242 37.8439 43.3242H21.6534V39.7282H37.8439C39.0836 39.7282 40.2005 39.4886 41.1945 39.009C42.1766 38.541 43.0128 37.8979 43.7028 37.0794C44.3812 36.2727 44.9072 35.3251 45.2815 34.2378C45.644 33.1501 45.8252 31.9867 45.8252 30.747C45.8252 29.5073 45.644 28.3381 45.2815 27.2386C44.9072 26.1512 44.3812 25.1979 43.7028 24.3793C43.0128 23.5726 42.1766 22.9353 41.1945 22.4673C40.2005 21.9997 39.0836 21.7658 37.8439 21.7658H21.6534V18.1698Z" fill="#F9A826"/>
<path d="M21.4905 21.698L21.6509 18.3301H10.7453L7.69811 9.83014H0.32077L0.641524 13.8864H4.9717L7.69811 21.698H21.4905Z" fill="#F9A826" stroke="#F9A826"/>
<path d="M21.7205 43.0537V40.1669H7.6073V43.0537H21.7205Z" fill="#F9A826" stroke="#F9A826"/>
<path d="M16.3585 51.8494C18.4842 51.8494 20.2075 50.1261 20.2075 48.0003C20.2075 45.8746 18.4842 44.1513 16.3585 44.1513C14.2327 44.1513 12.5094 45.8746 12.5094 48.0003C12.5094 50.1261 14.2327 51.8494 16.3585 51.8494Z" fill="#F9A826"/>
<path d="M33.6793 51.8494C35.805 51.8494 37.5283 50.1261 37.5283 48.0003C37.5283 45.8746 35.805 44.1513 33.6793 44.1513C31.5535 44.1513 29.8302 45.8746 29.8302 48.0003C29.8302 50.1261 31.5535 51.8494 33.6793 51.8494Z" fill="#F9A826"/>
<path d="M7.37735 21.0566H37.5283C42.3114 21.0566 46.1887 24.9339 46.1887 29.717V31.6415C46.1887 36.4246 42.3114 40.3019 37.5283 40.3019H7.37735V21.0566Z" fill="#F9A826"/>
</svg>
